{
  "accessors": [
    {
      "bufferView": 2,
      "componentType": 5126,
      "count": 3649,
      "max": [
        0.22972865402698517,
        0.074139021337032318,
        0.044841155409812927
      ],
      "min": [
        -0.028529547154903412,
        -0.058824244886636734,
        -0.04484117403626442
      ],
      "type": "VEC3"
    },
    {
      "bufferView": 2,
      "byteOffset": 43788,
      "componentType": 5126,
      "count": 3649,
      "max": [
        1,
        0.99989473819732666,
        0.99992001056671143
      ],
      "min": [
        -1,
        -0.9998321533203125,
        -0.99979996681213379
      ],
      "type": "VEC3"
    },
    {
      "bufferView": 3,
      "componentType": 5126,
      "count": 3649,
      "max": [
        0.99797737598419189,
        0.9992033839225769,
        0.99989086389541626,
        1
      ],
      "min": [
        -0.99993741512298584,
        -0.99996542930603027,
        -0.99965953826904297,
        1
      ],
      "type": "VEC4"
    },
    {
      "bufferView": 1,
      "componentType": 5126,
      "count": 3649,
      "max": [
        0.98998856544494629,
        0.99018275737762451
      ],
      "min": [
        0.01233881339430809,
        0.011374139226973057
      ],
      "type": "VEC2"
    },
    {
      "bufferView": 0,
      "componentType": 5125,
      "count": 18300,
      "max": [
        3648
      ],
      "min": [
        0
      ],
      "type": "SCALAR"
    },
    {
      "bufferView": 2,
      "byteOffset": 87576,
      "componentType": 5126,
      "count": 3479,
      "max": [
        0.23673087358474731,
        0.062295354902744293,
        0.044841159135103226
      ],
      "min": [
        -0.028529541566967964,
        -0.078149281442165375,
        -0.044841207563877106
      ],
      "type": "VEC3"
    },
    {
      "bufferView": 2,
      "byteOffset": 129324,
      "componentType": 5126,
      "count": 3479,
      "max": [
        1,
        0.99979197978973389,
        0.99991929531097412
      ],
      "min": [
        -1,
        -0.99987828731536865,
        -0.99975502490997314
      ],
      "type": "VEC3"
    },
    {
      "bufferView": 3,
      "byteOffset": 58384,
      "componentType": 5126,
      "count": 3479,
      "max": [
        0.99941521883010864,
        0.99996602535247803,
        0.99988746643066406,
        -1
      ],
      "min": [
        -0.99866390228271484,
        -0.99923443794250488,
        -0.99955147504806519,
        -1
      ],
      "type": "VEC4"
    },
    {
      "bufferView": 1,
      "byteOffset": 29192,
      "componentType": 5126,
      "count": 3479,
      "max": [
        0.98998856544494629,
        0.99018275737762451
      ],
      "min": [
        0.01233881339430809,
        0.011374139226973057
      ],
      "type": "VEC2"
    },
    {
      "bufferView": 0,
      "byteOffset": 73200,
      "componentType": 5125,
      "count": 18300,
      "max": [
        3478
      ],
      "min": [
        0
      ],
      "type": "SCALAR"
    }
  ],
  "asset": {
    "extras": {
      "author": "Joey (https://sketchfab.com/Joeyvm)",
      "license": "CC-BY-NC-4.0 (http://creativecommons.org/licenses/by-nc/4.0/)",
      "source": "https://sketchfab.com/3d-models/vr-retro-futuristic-gloves-f3e0704e49fb436f838808f495c85edc",
      "title": "VR Retro Futuristic Gloves"
    },
    "generator": "Sketchfab-10.38.0",
    "version": "2.0"
  },
  "bufferViews": [
    {
      "buffer": 0,
      "byteLength": 146400,
      "byteOffset": 0,
      "name": "floatBufferViews",
      "target": 34963
    },
    {
      "buffer": 0,
      "byteLength": 57024,
      "byteOffset": 146400,
      "byteStride": 8,
      "name": "floatBufferViews",
      "target": 34962
    },
    {
      "buffer": 0,
      "byteLength": 171072,
      "byteOffset": 203424,
      "byteStride": 12,
      "name": "floatBufferViews",
      "target": 34962
    },
    {
      "buffer": 0,
      "byteLength": 114048,
      "byteOffset": 374496,
      "byteStride": 16,
      "name": "floatBufferViews",
      "target": 34962
    }
  ],
  "buffers": [
    {
      "byteLength": 488544,
      "uri": "scene.bin"
    }
  ],
  "images": [
    {
      "uri": "textures/M_Hands_baseColor.jpeg"
    },
    {
      "uri": "textures/M_Hands_metallicRoughness.png"
    },
    {
      "uri": "textures/M_Hands_normal.png"
    }
  ],
  "materials": [
    {
      "doubleSided": true,
      "name": "M_Hands",
      "normalTexture": {
        "index": 2,
        "scale": 1,
        "texCoord": 0
      },
      "occlusionTexture": {
        "index": 1,
        "strength": 1,
        "texCoord": 0
      },
      "pbrMetallicRoughness": {
        "baseColorFactor": [
          1,
          1,
          1,
          1
        ],
        "baseColorTexture": {
          "index": 0,
          "texCoord": 0
        },
        "metallicFactor": 1,
        "metallicRoughnessTexture": {
          "index": 1,
          "texCoord": 0
        },
        "roughnessFactor": 1
      }
    },
    {
      "doubleSided": true,
      "name": "M_Hands.001",
      "normalTexture": {
        "index": 2,
        "scale": 1,
        "texCoord": 0
      },
      "occlusionTexture": {
        "index": 1,
        "strength": 1,
        "texCoord": 0
      },
      "pbrMetallicRoughness": {
        "baseColorFactor": [
          1,
          1,
          1,
          1
        ],
        "baseColorTexture": {
          "index": 0,
          "texCoord": 0
        },
        "metallicFactor": 1,
        "metallicRoughnessTexture": {
          "index": 1,
          "texCoord": 0
        },
        "roughnessFactor": 1
      }
    }
  ],
  "meshes": [
    {
      "name": "LabHand_R_M_Hands_0",
      "primitives": [
        {
          "attributes": {
            "NORMAL": 1,
            "POSITION": 0,
            "TANGENT": 2,
            "TEXCOORD_0": 3
          },
          "indices": 4,
          "material": 0,
          "mode": 4
        }
      ]
    },
    {
      "name": "LabHand_R.003_M_Hands.001_0",
      "primitives": [
        {
          "attributes": {
            "NORMAL": 6,
            "POSITION": 5,
            "TANGENT": 7,
            "TEXCOORD_0": 8
          },
          "indices": 9,
          "material": 1,
          "mode": 4
        }
      ]
    }
  ],
  "nodes": [
    {
      "children": [
        1
      ],
      "name": "RootNode (gltf orientation matrix)",
      "rotation": [
        -0.70710678118654746,
        -0,
        -0,
        0.70710678118654757
      ]
    },
    {
      "children": [
        2
      ],
      "name": "RootNode (model correction matrix)"
    },
    {
      "children": [
        3
      ],
      "matrix": [
        1,
        0,
        0,
        0,
        0,
        0,
        1,
        0,
        0,
        -1,
        0,
        0,
        0,
        0,
        0,
        1
      ],
      "name": "VR_Retro_Futuristic_Gloves.fbx"
    },
    {
      "children": [
        4,
        6,
        8
      ],
      "name": "RootNode"
    },
    {
      "children": [
        5
      ],
      "matrix": [
        -65.155832803290963,
        -44.527135765708579,
        -61.417030473735487,
        0,
        -32.40134137821245,
        89.539574512336159,
        -30.542088974418615,
        0,
        68.592054721299746,
        -1.0718647115348782e-05,
        -72.767633623962695,
        0,
        735.88916015625,
        495.8309326171875,
        692.5791015625,
        1
      ],
      "name": "Camera"
    },
    {
      "name": ""
    },
    {
      "children": [
        7
      ],
      "matrix": [
        100,
        0,
        0,
        0,
        0,
        93.358041216189292,
        -35.836798689005441,
        0,
        0,
        35.836798689005441,
        93.358041216189292,
        0,
        0,
        0,
        15.000000953674316,
        1
      ],
      "name": "LabHand_R"
    },
    {
      "mesh": 0,
      "name": "LabHand_R_M_Hands_0"
    },
    {
      "children": [
        9
      ],
      "matrix": [
        100,
        0,
        0,
        0,
        0,
        -1.6292067939183141e-05,
        -99.999999999998678,
        0,
        0,
        99.999999999998678,
        -1.6292067939183141e-05,
        0,
        0,
        0,
        -15.000000953674316,
        1
      ],
      "name": "LabHand_R.003"
    },
    {
      "mesh": 1,
      "name": "LabHand_R.003_M_Hands.001_0"
    }
  ],
  "samplers": [
    {
      "magFilter": 9729,
      "minFilter": 9987,
      "wrapS": 10497,
      "wrapT": 10497
    }
  ],
  "scene": 0,
  "scenes": [
    {
      "name": "OSG_Scene",
      "nodes": [
        0
      ]
    }
  ],
  "textures": [
    {
      "sampler": 0,
      "source": 0
    },
    {
      "sampler": 0,
      "source": 1
    },
    {
      "sampler": 0,
      "source": 2
    }
  ]
}

